<svg xmlns="http://www.w3.org/2000/svg" viewBox="0 0 100 100" width="100" height="100">
  <!-- Corazón principal -->
  <path d="M 50 85 L 45 80 C 35 70 25 60 25 50 C 25 40 30 35 35 35 C 40 35 45 40 50 45 C 55 40 60 35 65 35 C 70 35 75 40 75 50 C 75 60 65 70 55 80 Z" 
        fill="#e74c3c" fill-opacity="0.8" stroke="#c0392b" stroke-width="3"/>
  
  <!-- Ventrículos -->
  <path d="M 42 55 Q 40 60 42 65" stroke="#c0392b" stroke-width="1.5" fill="none"/>
  <path d="M 58 55 Q 60 60 58 65" stroke="#c0392b" stroke-width="1.5" fill="none"/>
  
  <!-- Aurículas -->
  <path d="M 38 45 Q 35 50 38 55" stroke="#c0392b" stroke-width="1.5" fill="none"/>
  <path d="M 62 45 Q 65 50 62 55" stroke="#c0392b" stroke-width="1.5" fill="none"/>
  
  <!-- Líneas de definición -->
  <path d="M 45 60 Q 43 65 45 70" stroke="#c0392b" stroke-width="1" fill="none"/>
  <path d="M 55 60 Q 57 65 55 70" stroke="#c0392b" stroke-width="1" fill="none"/>
</svg>

