<svg xmlns="http://www.w3.org/2000/svg" viewBox="0 0 100 120" width="100" height="120">
  <!-- Cabeza -->
  <circle cx="50" cy="8" r="6" fill="#2c3e50" stroke="#1a252f" stroke-width="1"/>
  <path d="M 50 14 L 50 20" stroke="#1a252f" stroke-width="2" stroke-linecap="round"/>
  
  <!-- Trapecio superior -->
  <path d="M 40 22 Q 35 28 40 35 Q 45 40 50 42 Q 55 40 60 35 Q 65 28 60 22" 
        fill="#3498db" fill-opacity="0.6" stroke="#2980b9" stroke-width="2.5"/>
  
  <!-- Deltoides posteriores -->
  <path d="M 32 30 Q 28 35 32 42" stroke="#2980b9" stroke-width="2.5" fill="none"/>
  <path d="M 68 30 Q 72 35 68 42" stroke="#2980b9" stroke-width="2.5" fill="none"/>
  
  <!-- Dorsales (latissimus dorsi) -->
  <path d="M 38 40 Q 32 50 38 70 Q 42 80 50 82 Q 58 80 62 70 Q 68 50 62 40" 
        fill="#3498db" fill-opacity="0.7" stroke="#2980b9" stroke-width="2.5"/>
  
  <!-- Columna vertebral -->
  <path d="M 50 40 L 50 100" stroke="#1a252f" stroke-width="3" stroke-linecap="round"/>
  
  <!-- Músculos paraespinales -->
  <path d="M 45 50 Q 43 55 45 60" stroke="#2980b9" stroke-width="1.5" fill="none"/>
  <path d="M 55 50 Q 57 55 55 60" stroke="#2980b9" stroke-width="1.5" fill="none"/>
  <path d="M 45 65 Q 43 70 45 75" stroke="#2980b9" stroke-width="1.5" fill="none"/>
  <path d="M 55 65 Q 57 70 55 75" stroke="#2980b9" stroke-width="1.5" fill="none"/>
  
  <!-- Líneas de definición -->
  <path d="M 42 75 Q 40 80 42 85" stroke="#2980b9" stroke-width="1.5" fill="none"/>
  <path d="M 58 75 Q 60 80 58 85" stroke="#2980b9" stroke-width="1.5" fill="none"/>
</svg>

