<svg xmlns="http://www.w3.org/2000/svg" viewBox="0 0 100 120" width="100" height="120">
  <!-- Cabeza -->
  <circle cx="50" cy="10" r="8" fill="#2c3e50" stroke="#1a252f" stroke-width="1"/>
  
  <!-- Cuello -->
  <path d="M 50 18 L 50 24" stroke="#1a252f" stroke-width="3" stroke-linecap="round"/>
  
  <!-- Hombros y pecho -->
  <path d="M 40 26 Q 35 30 40 40 Q 45 45 50 47 Q 55 45 60 40 Q 65 30 60 26" 
        fill="#e74c3c" fill-opacity="0.6" stroke="#c0392b" stroke-width="2.5"/>
  
  <!-- Brazos -->
  <path d="M 35 30 Q 30 40 35 50" stroke="#1a252f" stroke-width="2.5" fill="none"/>
  <path d="M 65 30 Q 70 40 65 50" stroke="#1a252f" stroke-width="2.5" fill="none"/>
  
  <!-- Torso -->
  <path d="M 42 40 Q 40 50 42 60 Q 45 65 50 67 Q 55 65 58 60 Q 60 50 58 40" 
        fill="#e74c3c" fill-opacity="0.5" stroke="#c0392b" stroke-width="2"/>
  
  <!-- Abdomen -->
  <path d="M 44 55 L 56 55" stroke="#1a252f" stroke-width="2"/>
  <path d="M 44 60 L 56 60" stroke="#1a252f" stroke-width="2"/>
  
  <!-- Cadera -->
  <path d="M 38 65 Q 36 70 38 75" stroke="#1a252f" stroke-width="2" fill="none"/>
  <path d="M 62 65 Q 64 70 62 75" stroke="#1a252f" stroke-width="2" fill="none"/>
  
  <!-- Piernas -->
  <path d="M 40 75 Q 38 85 40 100 Q 42 105 45 107" 
        fill="#16a085" fill-opacity="0.6" stroke="#138d75" stroke-width="2"/>
  <path d="M 60 75 Q 62 85 60 100 Q 58 105 55 107" 
        fill="#16a085" fill-opacity="0.6" stroke="#138d75" stroke-width="2"/>
  
  <!-- Rodillas -->
  <circle cx="42" cy="90" r="2.5" fill="#1a252f" fill-opacity="0.3" stroke="#1a252f" stroke-width="1.5"/>
  <circle cx="58" cy="90" r="2.5" fill="#1a252f" fill-opacity="0.3" stroke="#1a252f" stroke-width="1.5"/>
  
  <!-- Pantorrillas -->
  <path d="M 40 100 Q 38 105 40 110" stroke="#138d75" stroke-width="2" fill="none"/>
  <path d="M 60 100 Q 62 105 60 110" stroke="#138d75" stroke-width="2" fill="none"/>
  
  <!-- Pies -->
  <path d="M 38 110 Q 36 112 38 114" stroke="#1a252f" stroke-width="2" fill="none"/>
  <path d="M 62 110 Q 64 112 62 114" stroke="#1a252f" stroke-width="2" fill="none"/>
</svg>

