<svg xmlns="http://www.w3.org/2000/svg" viewBox="0 0 100 100" width="100" height="100">
  <!-- Glúteo izquierdo -->
  <path d="M 25 30 Q 20 40 25 60 Q 30 70 35 72 Q 40 74 42 72 Q 44 70 46 60 Q 50 40 45 30" 
        fill="#f39c12" fill-opacity="0.7" stroke="#e67e22" stroke-width="2.5"/>
  
  <!-- Glúteo derecho -->
  <path d="M 50 30 Q 55 40 50 60 Q 45 70 40 72 Q 35 74 33 72 Q 31 70 29 60 Q 25 40 30 30" 
        fill="#f39c12" fill-opacity="0.7" stroke="#e67e22" stroke-width="2.5"/>
  
  <!-- Línea de separación -->
  <path d="M 50 35 L 50 85" stroke="#1a252f" stroke-width="3" stroke-linecap="round"/>
  
  <!-- Glúteo mayor -->
  <path d="M 30 45 Q 28 55 30 65" stroke="#e67e22" stroke-width="2" fill="none"/>
  <path d="M 70 45 Q 72 55 70 65" stroke="#e67e22" stroke-width="2" fill="none"/>
  
  <!-- Líneas de definición -->
  <path d="M 32 55 Q 30 60 32 65" stroke="#e67e22" stroke-width="1.5" fill="none"/>
  <path d="M 68 55 Q 70 60 68 65" stroke="#e67e22" stroke-width="1.5" fill="none"/>
  <path d="M 35 60 Q 33 65 35 70" stroke="#e67e22" stroke-width="1.5" fill="none"/>
  <path d="M 65 60 Q 67 65 65 70" stroke="#e67e22" stroke-width="1.5" fill="none"/>
</svg>

