<svg xmlns="http://www.w3.org/2000/svg" viewBox="0 0 100 100" width="100" height="100">
  <!-- Cabeza -->
  <circle cx="50" cy="12" r="7" fill="#2c3e50" stroke="#1a252f" stroke-width="1"/>
  
  <!-- Deltoides anterior izquierdo -->
  <path d="M 25 30 Q 20 35 25 45 Q 30 50 35 52" 
        fill="#9b59b6" fill-opacity="0.7" stroke="#8e44ad" stroke-width="2.5"/>
  
  <!-- Deltoides anterior derecho -->
  <path d="M 75 30 Q 80 35 75 45 Q 70 50 65 52" 
        fill="#9b59b6" fill-opacity="0.7" stroke="#8e44ad" stroke-width="2.5"/>
  
  <!-- Hueso de la clavícula -->
  <path d="M 30 35 Q 28 38 30 42" stroke="#1a252f" stroke-width="2" fill="none"/>
  <path d="M 70 35 Q 72 38 70 42" stroke="#1a252f" stroke-width="2" fill="none"/>
  
  <!-- Deltoides medio -->
  <path d="M 28 40 Q 25 45 28 50" stroke="#8e44ad" stroke-width="2.5" fill="none"/>
  <path d="M 72 40 Q 75 45 72 50" stroke="#8e44ad" stroke-width="2.5" fill="none"/>
  
  <!-- Líneas de definición deltoides -->
  <path d="M 30 48 Q 28 52 30 56" stroke="#8e44ad" stroke-width="1.5" fill="none"/>
  <path d="M 70 48 Q 72 52 70 56" stroke="#8e44ad" stroke-width="1.5" fill="none"/>
  
  <!-- Conexión con pecho -->
  <path d="M 38 55 Q 40 58 42 60" stroke="#8e44ad" stroke-width="1.5" fill="none"/>
  <path d="M 62 55 Q 60 58 58 60" stroke="#8e44ad" stroke-width="1.5" fill="none"/>
</svg>

