<svg xmlns="http://www.w3.org/2000/svg" viewBox="0 0 100 120" width="100" height="120">
  <!-- Cadera -->
  <path d="M 35 10 Q 32 15 35 20" stroke="#1a252f" stroke-width="2.5" fill="none"/>
  <path d="M 65 10 Q 68 15 65 20" stroke="#1a252f" stroke-width="2.5" fill="none"/>
  
  <!-- Cuádriceps izquierdo -->
  <path d="M 30 20 Q 25 30 30 50 Q 35 60 38 62 Q 40 64 42 62 Q 44 60 46 50 Q 50 30 45 20" 
        fill="#16a085" fill-opacity="0.7" stroke="#138d75" stroke-width="2.5"/>
  
  <!-- Cuádriceps derecho -->
  <path d="M 70 20 Q 75 30 70 50 Q 65 60 62 62 Q 60 64 58 62 Q 56 60 54 50 Q 50 30 55 20" 
        fill="#16a085" fill-opacity="0.7" stroke="#138d75" stroke-width="2.5"/>
  
  <!-- Vasto lateral -->
  <path d="M 25 30 Q 22 40 25 50" stroke="#138d75" stroke-width="2" fill="none"/>
  <path d="M 75 30 Q 78 40 75 50" stroke="#138d75" stroke-width="2" fill="none"/>
  
  <!-- Recto femoral -->
  <path d="M 32 40 Q 30 50 32 60" stroke="#138d75" stroke-width="2" fill="none"/>
  <path d="M 68 40 Q 70 50 68 60" stroke="#138d75" stroke-width="2" fill="none"/>
  
  <!-- Pantorrillas -->
  <path d="M 30 70 Q 28 80 30 95 Q 32 100 35 102" 
        fill="#16a085" fill-opacity="0.6" stroke="#138d75" stroke-width="2"/>
  <path d="M 70 70 Q 72 80 70 95 Q 68 100 65 102" 
        fill="#16a085" fill-opacity="0.6" stroke="#138d75" stroke-width="2"/>
  
  <!-- Líneas de definición -->
  <path d="M 28 50 Q 26 55 28 60" stroke="#138d75" stroke-width="1.5" fill="none"/>
  <path d="M 72 50 Q 74 55 72 60" stroke="#138d75" stroke-width="1.5" fill="none"/>
  
  <!-- Rodillas -->
  <circle cx="35" cy="65" r="3.5" fill="#1a252f" fill-opacity="0.3" stroke="#1a252f" stroke-width="2"/>
  <circle cx="65" cy="65" r="3.5" fill="#1a252f" fill-opacity="0.3" stroke="#1a252f" stroke-width="2"/>
</svg>

